# xmcd
# Copyright (C) 1995-1998 Ti Kan
#
# Track frame offsets:
#       151
#       27210
#       49202
#       66327
#       89028
#       106542
#       136786
#       159434
#       176676
#       204447
#       225203
#       266377
#
# Disc length: 3816 seconds
#
# Revision: 0
# Processed by: cddbd v1.5.2PL0 Copyright (c) Steve Scherf et al.
# Submitted via: CD-Transfer v1.0
#
DISCID=940ee60c
DTITLE=Marshall Tucker Band, The - Toy Caldwell
DYEAR=1900
DGENRE=
TTITLE0=Can't You See
TTITLE1=Heard It In A Love Song
TTITLE2=Searchin' For A Rainbow
TTITLE3=Ramblin'
TTITLE4=Fire On The Mountain
TTITLE5=This Ol' Cowboy
TTITLE6=24 Hours At A Time
TTITLE7=Long Hard Ride
TTITLE8=Take The Highway
TTITLE9=Dream Lver
TTITLE10=Running Like The Wind
TTITLE11=Am I The Kind Of Man
EXTD=
EXTT0=
EXTT1=
EXTT2=
EXTT3=
EXTT4=
EXTT5=
EXTT6=
EXTT7=
EXTT8=
EXTT9=
EXTT10=
EXTT11=
PLAYORDER=
